<svg width="576" height="362" viewBox="0 0 576 362" fill="none" xmlns="http://www.w3.org/2000/svg">
<g clip-path="url(#clip0_1_50)">
<path opacity="0.04" d="M76.3682 89.2565L61.9279 115.764L0 0.0393984H26.127C29.8895 0.0246595 33.5867 1.019 36.8314 2.91827C40.085 4.79017 42.7642 7.51241 44.5798 10.7913L44.6436 10.9085C59.7379 39.2037 69.6483 57.745 74.9364 67.5847C75.3574 68.3162 75.7332 69.0727 76.0617 69.8499C76.1135 69.942 76.164 70.0369 76.2149 70.1314C79.6567 76.3571 79.7234 82.9453 76.4053 89.1886L76.3696 89.2555L76.3682 89.2565ZM570.704 110.442C567.431 107.344 563.079 105.634 558.566 105.674H533.412C522.597 105.674 513.789 102.228 506.482 95.1414C499.234 88.1136 495.711 79.7281 495.711 69.504V17.0288C495.725 14.7597 495.262 12.5128 494.351 10.4333C493.44 8.35383 492.102 6.48808 490.423 4.95664C488.056 2.71462 485.103 1.18465 481.902 0.54294C480.451 0.207004 478.966 0.0383689 477.476 0.0403476H391.351V0.0113975H287.483C275.238 -0.246306 264.46 3.78677 255.446 12.0034C252.831 14.3685 250.505 17.034 248.518 19.9442C246.702 17.2624 244.611 14.7756 242.28 12.5235C233.607 4.09099 222.669 -0.119115 209.755 0.0113975H176.668L176.672 0.00380401L152.227 0.0113975V0.0393984H151.547C147.726 0.00866662 143.967 1.003 140.663 2.91827C137.41 4.79024 134.731 7.5125 132.916 10.7913L132.851 10.9113C112.421 49.2375 91.4139 88.6162 70.4127 127.952L64.5967 138.847H93.7448C99.775 138.847 104.74 135.922 107.724 130.611L107.815 130.443C112.437 121.698 116.666 113.714 120.385 106.711C124.132 99.6567 128.326 91.8311 132.85 83.4527C137.353 75.1146 141.95 66.5435 146.516 57.9799C151.081 49.4164 155.278 41.5866 158.986 34.7102C159.227 34.2627 159.47 33.8132 159.715 33.3581C169.398 33.3581 176.177 33.3505 182.76 33.3448C190.388 33.3391 198.277 33.3315 210.689 33.3315C213.926 33.3315 216.425 34.2537 218.554 36.2327C219.501 37.0539 220.264 38.0647 220.794 39.1994C221.324 40.3341 221.608 41.5672 221.628 42.8186C221.613 44.0464 221.336 45.2569 220.814 46.3693C220.293 47.4818 219.539 48.4705 218.604 49.2697C216.435 51.2502 213.889 52.2151 210.596 52.3071H156.993L225.182 132.461L225.431 132.754L225.709 133.02C229.803 136.927 234.787 138.992 240.126 138.992H255.744L255.832 139.079L264.418 138.992H337.846L338.157 138.965C349.816 137.987 359.709 133.412 367.567 125.368C375.537 117.209 379.578 107.329 379.578 96.0037C379.578 84.1124 375.146 73.8441 366.405 65.4837C357.766 57.2258 347.234 53.0304 335.102 53.0157L317.256 52.7072V69.3212C317.244 71.5558 317.684 73.7699 318.548 75.8317C319.412 77.8934 320.683 79.7608 322.286 81.3227C323.87 82.9213 325.758 84.1884 327.839 85.0495C329.921 85.9106 332.154 86.3484 334.407 86.3372C336.689 86.3923 339.987 86.7834 342.534 89.4102C344.52 91.4605 345.445 93.5548 345.445 96.0023C345.445 98.4498 344.535 100.478 342.58 102.46C340.797 104.38 338.332 105.531 335.711 105.667L246.901 105.833C246.193 104.983 245.487 104.133 244.782 103.282C240.001 97.5201 234.161 90.5815 227.354 82.5752C235.837 79.2594 243.141 73.5063 248.34 66.0456C250.197 68.8228 252.358 71.3855 254.783 73.6865C263.434 81.9596 274.049 86.1531 286.334 86.1531H303.758V69.8509C303.785 67.554 303.328 65.2769 302.417 63.167C301.506 61.0571 300.161 59.1613 298.47 57.6021C295.197 54.5041 290.845 52.7944 286.332 52.8334C284.906 52.8739 283.486 52.6263 282.159 52.1056C280.831 51.585 279.622 50.8019 278.606 49.8037C276.506 47.8142 275.569 45.7407 275.569 43.0796C275.569 40.4186 276.492 38.4163 278.558 36.4923C279.59 35.5036 280.81 34.7302 282.145 34.2173C283.48 33.7044 284.905 33.4623 286.335 33.5052H286.54L286.757 33.4934C288.01 33.4312 298.823 33.3273 357.161 33.3273C357.477 33.3273 358.237 33.3405 359.118 33.3567C362.04 33.4117 367.482 33.5123 372.339 33.3937C372.785 33.3833 373.215 33.37 373.634 33.3567H400.575V121.823C400.563 124.057 401.002 126.27 401.865 128.331C402.729 130.392 403.999 132.259 405.601 133.82C407.195 135.431 409.098 136.706 411.196 137.569C413.295 138.431 415.546 138.864 417.816 138.841H435.061V44.7488C435.061 43.4978 435.061 42.4954 435.057 41.4504C435.057 40.3166 435.053 39.1306 435.053 37.5113C435.058 36.0603 434.688 34.6325 433.979 33.3652H461.046V69.5049C461.046 87.9276 467.71 104.011 480.844 117.309C493.875 130.503 510.07 137.733 528.979 138.801C529.908 138.874 532.853 138.997 568.564 138.997H575.997V122.692C576.024 120.395 575.567 118.118 574.657 116.008C573.746 113.898 572.401 112.002 570.709 110.443L570.704 110.442Z" fill="black"/>
<path opacity="0.04" d="M76.3706 312.177L61.9303 338.684L0.00244141 222.96H26.1295C29.8919 222.945 33.5891 223.939 36.8338 225.839C40.0874 227.711 42.7666 230.433 44.5823 233.712L44.6461 233.829C59.7404 262.124 69.6507 280.665 74.9389 290.505C75.3599 291.237 75.7357 291.993 76.0641 292.77C76.116 292.862 76.1664 292.957 76.2174 293.052C79.6592 299.277 79.7258 305.866 76.4078 312.109L76.3721 312.176L76.3706 312.177ZM570.706 333.363C567.433 330.265 563.081 328.555 558.569 328.594H533.414C522.6 328.594 513.791 325.149 506.484 318.062C499.236 311.034 495.713 302.649 495.713 292.424V239.949C495.728 237.68 495.265 235.433 494.354 233.354C493.443 231.274 492.104 229.409 490.425 227.877C488.059 225.635 485.105 224.105 481.905 223.463C480.454 223.127 478.968 222.959 477.478 222.961H391.353V222.932H287.486C275.241 222.674 264.463 226.707 255.449 234.924C252.833 237.289 250.508 239.954 248.521 242.865C246.704 240.183 244.614 237.696 242.283 235.444C233.609 227.011 222.672 222.801 209.757 222.932H176.671L176.675 222.924L152.229 222.932V222.96H151.55C147.728 222.929 143.969 223.923 140.666 225.839C137.412 227.711 134.734 230.433 132.919 233.712L132.853 233.832C112.423 272.158 91.4164 311.537 70.4152 350.872L64.5992 361.767H93.7472C99.7774 361.767 104.742 358.843 107.727 353.531L107.818 353.364C112.44 344.618 116.668 336.634 120.388 329.631C124.134 322.577 128.328 314.752 132.852 306.373C137.356 298.035 141.953 289.464 146.518 280.9C151.084 272.337 155.281 264.507 158.989 257.631C159.23 257.183 159.472 256.734 159.718 256.279C169.4 256.279 176.18 256.271 182.763 256.265C190.391 256.26 198.28 256.252 210.692 256.252C213.928 256.252 216.427 257.174 218.556 259.153C219.504 259.974 220.267 260.985 220.797 262.12C221.326 263.255 221.611 264.488 221.631 265.739C221.616 266.967 221.338 268.177 220.817 269.29C220.295 270.402 219.542 271.391 218.607 272.19C216.438 274.171 213.891 275.136 210.598 275.228H156.996L225.184 355.381L225.434 355.675L225.712 355.94C229.805 359.847 234.79 361.912 240.128 361.912H255.747L255.834 362L264.42 361.912H337.848L338.159 361.886C349.818 360.908 359.712 356.333 367.569 348.288C375.539 340.129 379.58 330.249 379.58 318.924C379.58 307.033 375.148 296.765 366.408 288.404C357.769 280.146 347.237 275.951 335.104 275.936L317.258 275.628V292.242C317.247 294.476 317.686 296.69 318.55 298.752C319.415 300.814 320.686 302.681 322.289 304.243C323.872 305.842 325.76 307.109 327.842 307.97C329.923 308.831 332.156 309.269 334.41 309.258C336.691 309.313 339.989 309.704 342.536 312.331C344.522 314.381 345.447 316.475 345.447 318.923C345.447 321.37 344.537 323.398 342.582 325.38C340.799 327.3 338.335 328.451 335.714 328.588L246.903 328.753C246.196 327.904 245.49 327.054 244.785 326.203C240.004 320.44 234.164 313.502 227.356 305.496C235.839 302.18 243.143 296.427 248.342 288.966C250.2 291.743 252.361 294.306 254.786 296.607C263.437 304.88 274.052 309.074 286.336 309.074H303.76V292.771C303.787 290.474 303.331 288.197 302.42 286.087C301.509 283.978 300.164 282.082 298.472 280.523C295.199 277.425 290.847 275.715 286.335 275.754C284.908 275.794 283.489 275.547 282.161 275.026C280.833 274.505 279.625 273.722 278.608 272.724C276.508 270.735 275.571 268.661 275.571 266C275.571 263.339 276.495 261.337 278.561 259.413C279.593 258.424 280.812 257.651 282.147 257.138C283.483 256.625 284.908 256.383 286.338 256.426H286.543L286.76 256.414C288.013 256.352 298.826 256.248 357.163 256.248C357.48 256.248 358.239 256.261 359.12 256.277C362.043 256.332 367.484 256.433 372.341 256.314C372.787 256.304 373.217 256.29 373.637 256.277H400.577V344.744C400.565 346.977 401.004 349.19 401.868 351.251C402.731 353.312 404.002 355.179 405.603 356.741C407.197 358.352 409.1 359.627 411.199 360.489C413.297 361.352 415.548 361.784 417.818 361.761H435.064V267.669C435.064 266.418 435.064 265.416 435.059 264.371C435.059 263.237 435.055 262.051 435.055 260.432C435.06 258.981 434.691 257.553 433.982 256.286H461.048V292.425C461.048 310.848 467.712 326.931 480.847 340.23C493.878 353.423 510.072 360.653 528.981 361.722C529.91 361.795 532.856 361.917 568.566 361.917H576V345.612C576.027 343.315 575.57 341.038 574.659 338.929C573.748 336.819 572.403 334.923 570.711 333.364L570.706 333.363Z" fill="black"/>
<path opacity="0.15" d="M76.3706 145.08L61.9303 171.587L0.00244141 55.8628H26.1295C29.8919 55.848 33.5891 56.8424 36.8338 58.7416C40.0874 60.6135 42.7666 63.3358 44.5823 66.6146L44.6461 66.7319C59.7404 95.027 69.6507 113.568 74.9389 123.408C75.3599 124.14 75.7357 124.896 76.0641 125.673C76.116 125.765 76.1664 125.86 76.2174 125.955C79.6592 132.18 79.7258 138.769 76.4078 145.012L76.3721 145.079L76.3706 145.08ZM570.706 166.266C567.433 163.168 563.081 161.458 558.569 161.497H533.414C522.6 161.497 513.791 158.052 506.484 150.965C499.236 143.937 495.713 135.551 495.713 125.327V72.8522C495.728 70.5831 495.265 68.3362 494.354 66.2567C493.443 64.1772 492.104 62.3114 490.425 60.78C488.059 58.538 485.105 57.008 481.905 56.3663C480.454 56.0304 478.968 55.8617 477.478 55.8637H391.353V55.8348H287.486C275.241 55.5771 264.463 59.6101 255.449 67.8267C252.833 70.1919 250.508 72.8574 248.521 75.7676C246.704 73.0858 244.614 70.5989 242.283 68.3469C233.609 59.9144 222.672 55.7042 209.757 55.8348H176.671L176.675 55.8272L152.229 55.8348V55.8628H151.55C147.728 55.832 143.969 56.8264 140.666 58.7416C137.412 60.6136 134.734 63.3359 132.919 66.6146L132.853 66.7347C112.423 105.061 91.4164 144.44 70.4152 183.775L64.5992 194.67H93.7472C99.7774 194.67 104.742 191.745 107.727 186.434L107.818 186.267C112.44 177.521 116.668 169.537 120.388 162.534C124.134 155.48 128.328 147.654 132.852 139.276C137.356 130.938 141.953 122.367 146.518 113.803C151.084 105.24 155.281 97.4099 158.989 90.5336C159.23 90.086 159.472 89.6366 159.718 89.1815C169.4 89.1815 176.18 89.1739 182.763 89.1682C190.391 89.1625 198.28 89.1549 210.692 89.1549C213.928 89.1549 216.427 90.077 218.556 92.0561C219.504 92.8773 220.267 93.8881 220.797 95.0228C221.326 96.1574 221.611 97.3906 221.631 98.642C221.616 99.8698 221.338 101.08 220.817 102.193C220.295 103.305 219.542 104.294 218.607 105.093C216.438 107.074 213.891 108.038 210.598 108.13H156.996L225.184 188.284L225.434 188.578L225.712 188.843C229.805 192.75 234.79 194.815 240.128 194.815H255.747L255.834 194.902L264.42 194.815H337.848L338.159 194.789C349.818 193.81 359.712 189.236 367.569 181.191C375.539 173.032 379.58 163.152 379.58 151.827C379.58 139.936 375.148 129.667 366.408 121.307C357.769 113.049 347.237 108.854 335.104 108.839L317.258 108.531V125.145C317.247 127.379 317.686 129.593 318.55 131.655C319.415 133.717 320.686 135.584 322.289 137.146C323.872 138.745 325.76 140.012 327.842 140.873C329.923 141.734 332.156 142.172 334.41 142.161C336.691 142.216 339.989 142.607 342.536 145.234C344.522 147.284 345.447 149.378 345.447 151.826C345.447 154.273 344.537 156.301 342.582 158.283C340.799 160.203 338.335 161.354 335.714 161.491L246.903 161.656C246.196 160.807 245.49 159.957 244.785 159.105C240.004 153.343 234.164 146.405 227.356 138.399C235.839 135.083 243.143 129.33 248.342 121.869C250.2 124.646 252.361 127.209 254.786 129.51C263.437 137.783 274.052 141.976 286.336 141.976H303.76V125.674C303.787 123.377 303.331 121.1 302.42 118.99C301.509 116.88 300.164 114.985 298.472 113.426C295.199 110.327 290.847 108.618 286.335 108.657C284.908 108.697 283.489 108.45 282.161 107.929C280.833 107.408 279.625 106.625 278.608 105.627C276.508 103.638 275.571 101.564 275.571 98.903C275.571 96.242 276.495 94.2397 278.561 92.3157C279.593 91.327 280.812 90.5536 282.147 90.0407C283.483 89.5278 284.908 89.2857 286.338 89.3286H286.543L286.76 89.3167C288.013 89.2546 298.826 89.1506 357.163 89.1506C357.48 89.1506 358.239 89.1639 359.12 89.18C362.043 89.2351 367.484 89.3357 372.341 89.2171C372.787 89.2066 373.217 89.1933 373.637 89.18H400.577V177.647C400.565 179.88 401.004 182.093 401.868 184.154C402.731 186.215 404.002 188.082 405.603 189.644C407.197 191.255 409.1 192.53 411.199 193.392C413.297 194.255 415.548 194.687 417.818 194.664H435.064V100.572C435.064 99.3211 435.064 98.3188 435.059 97.2737C435.059 96.1399 435.055 94.9539 435.055 93.3346C435.06 91.8837 434.691 90.4558 433.982 89.1886H461.048V125.328C461.048 143.751 467.712 159.834 480.847 173.132C493.878 186.326 510.072 193.556 528.981 194.625C529.91 194.697 532.856 194.82 568.566 194.82H576V178.515C576.027 176.218 575.57 173.941 574.659 171.831C573.748 169.722 572.403 167.826 570.711 166.267L570.706 166.266Z" fill="black"/>
<path opacity="0.15" d="M76.3682 253.236L61.9279 279.744L0 164.019H26.127C29.8895 164.005 33.5867 164.999 36.8314 166.898C40.085 168.77 42.7642 171.492 44.5798 174.771L44.6436 174.888C59.7379 203.184 69.6483 221.725 74.9364 231.565C75.3574 232.296 75.7332 233.053 76.0617 233.83C76.1135 233.922 76.164 234.017 76.2149 234.111C79.6567 240.337 79.7234 246.925 76.4053 253.169L76.3696 253.235L76.3682 253.236ZM570.704 274.422C567.431 271.324 563.079 269.614 558.566 269.654H533.412C522.597 269.654 513.789 266.208 506.482 259.121C499.234 252.094 495.711 243.708 495.711 233.484V181.009C495.725 178.74 495.262 176.493 494.351 174.413C493.44 172.334 492.102 170.468 490.423 168.937C488.056 166.695 485.103 165.165 481.902 164.523C480.451 164.187 478.966 164.018 477.476 164.02H391.351V163.991H287.483C275.238 163.734 264.46 167.767 255.446 175.983C252.831 178.348 250.505 181.014 248.518 183.924C246.702 181.242 244.611 178.756 242.28 176.503C233.607 168.071 222.669 163.861 209.755 163.991H176.668L176.672 163.984L152.227 163.991V164.019H151.547C147.726 163.989 143.967 164.983 140.663 166.898C137.41 168.77 134.731 171.492 132.916 174.771L132.851 174.891C112.421 213.217 91.4139 252.596 70.4127 291.932L64.5967 302.827H93.7448C99.775 302.827 104.74 299.902 107.724 294.591L107.815 294.423C112.437 285.678 116.666 277.694 120.385 270.691C124.132 263.637 128.326 255.811 132.85 247.433C137.353 239.095 141.95 230.523 146.516 221.96C151.081 213.396 155.278 205.567 158.986 198.69C159.227 198.243 159.47 197.793 159.715 197.338C169.398 197.338 176.177 197.33 182.76 197.325C190.388 197.319 198.277 197.311 210.689 197.311C213.926 197.311 216.425 198.234 218.554 200.213C219.501 201.034 220.264 202.045 220.794 203.179C221.324 204.314 221.608 205.547 221.628 206.799C221.613 208.026 221.336 209.237 220.814 210.349C220.293 211.462 219.539 212.451 218.604 213.25C216.435 215.23 213.889 216.195 210.596 216.287H156.993L225.182 296.441L225.431 296.734L225.709 296.999C229.803 300.907 234.787 302.972 240.126 302.972H255.744L255.832 303.059L264.418 302.972H337.846L338.157 302.945C349.816 301.967 359.709 297.392 367.567 289.348C375.537 281.189 379.578 271.309 379.578 259.984C379.578 248.092 375.146 237.824 366.405 229.464C357.766 221.206 347.234 217.01 335.102 216.996L317.256 216.687V233.301C317.244 235.536 317.684 237.75 318.548 239.812C319.412 241.873 320.683 243.741 322.286 245.303C323.87 246.901 325.758 248.168 327.839 249.029C329.921 249.891 332.154 250.328 334.407 250.317C336.689 250.372 339.987 250.763 342.534 253.39C344.52 255.44 345.445 257.535 345.445 259.982C345.445 262.43 344.535 264.458 342.58 266.44C340.797 268.36 338.332 269.511 335.711 269.647L246.901 269.813C246.193 268.963 245.487 268.113 244.782 267.262C240.001 261.5 234.161 254.561 227.354 246.555C235.837 243.239 243.141 237.486 248.34 230.026C250.197 232.803 252.358 235.365 254.783 237.666C263.434 245.94 274.049 250.133 286.334 250.133H303.758V233.831C303.785 231.534 303.328 229.257 302.417 227.147C301.506 225.037 300.161 223.141 298.47 221.582C295.197 218.484 290.845 216.774 286.332 216.813C284.906 216.854 283.486 216.606 282.159 216.086C280.831 215.565 279.622 214.782 278.606 213.784C276.506 211.794 275.569 209.721 275.569 207.06C275.569 204.399 276.492 202.396 278.558 200.472C279.59 199.484 280.81 198.71 282.145 198.197C283.48 197.684 284.905 197.442 286.335 197.485H286.54L286.757 197.473C288.01 197.411 298.823 197.307 357.161 197.307C357.477 197.307 358.237 197.321 359.118 197.337C362.04 197.392 367.482 197.492 372.339 197.374C372.785 197.363 373.215 197.35 373.634 197.337H400.575V285.803C400.563 288.037 401.002 290.25 401.865 292.311C402.729 294.372 403.999 296.239 405.601 297.8C407.195 299.411 409.098 300.686 411.196 301.549C413.295 302.411 415.546 302.844 417.816 302.821H435.061V208.729C435.061 207.478 435.061 206.475 435.057 205.43C435.057 204.297 435.053 203.111 435.053 201.491C435.058 200.04 434.688 198.612 433.979 197.345H461.046V233.485C461.046 251.908 467.71 267.991 480.844 281.289C493.875 294.483 510.07 301.713 528.979 302.781C529.908 302.854 532.853 302.977 568.564 302.977H575.997V286.672C576.024 284.375 575.567 282.098 574.657 279.988C573.746 277.878 572.401 275.982 570.709 274.423L570.704 274.422Z" fill="black"/>
<path d="M76.3682 197.852L61.9279 224.359L0 108.635H26.127C29.8895 108.62 33.5867 109.614 36.8314 111.513C40.085 113.385 42.7642 116.108 44.5798 119.386L44.6436 119.504C59.7379 147.799 69.6483 166.34 74.9364 176.18C75.3574 176.911 75.7332 177.668 76.0617 178.445C76.1135 178.537 76.164 178.632 76.2149 178.726C79.6567 184.952 79.7234 191.54 76.4053 197.784L76.3696 197.851L76.3682 197.852ZM570.704 219.037C567.431 215.939 563.079 214.23 558.566 214.269H533.412C522.597 214.269 513.789 210.824 506.482 203.737C499.234 196.709 495.711 188.323 495.711 178.099V125.624C495.725 123.355 495.262 121.108 494.351 119.028C493.44 116.949 492.102 115.083 490.423 113.552C488.056 111.31 485.103 109.78 481.902 109.138C480.451 108.802 478.966 108.633 477.476 108.635H391.351V108.607H287.483C275.238 108.349 264.46 112.382 255.446 120.598C252.831 122.964 250.505 125.629 248.518 128.539C246.702 125.858 244.611 123.371 242.28 121.119C233.607 112.686 222.669 108.476 209.755 108.607H176.668L176.672 108.599L152.227 108.607V108.635H151.547C147.726 108.604 143.967 109.598 140.663 111.513C137.41 113.385 134.731 116.108 132.916 119.386L132.851 119.506C112.421 157.833 91.4139 197.211 70.4127 236.547L64.5967 247.442H93.7448C99.775 247.442 104.74 244.517 107.724 239.206L107.815 239.039C112.437 230.293 116.666 222.309 120.385 215.306C124.132 208.252 128.326 200.426 132.85 192.048C137.353 183.71 141.95 175.139 146.516 166.575C151.081 158.011 155.278 150.182 158.986 143.305C159.227 142.858 159.47 142.408 159.715 141.953C169.398 141.953 176.177 141.946 182.76 141.94C190.388 141.934 198.277 141.927 210.689 141.927C213.926 141.927 216.425 142.849 218.554 144.828C219.501 145.649 220.264 146.66 220.794 147.795C221.324 148.929 221.608 150.162 221.628 151.414C221.613 152.642 221.336 153.852 220.814 154.964C220.293 156.077 219.539 157.066 218.604 157.865C216.435 159.845 213.889 160.81 210.596 160.902H156.993L225.182 241.056L225.431 241.349L225.709 241.615C229.803 245.522 234.787 247.587 240.126 247.587H255.744L255.832 247.674L264.418 247.587H337.846L338.157 247.56C349.816 246.582 359.709 242.008 367.567 233.963C375.537 225.804 379.578 215.924 379.578 204.599C379.578 192.707 375.146 182.439 366.405 174.079C357.766 165.821 347.234 161.626 335.102 161.611L317.256 161.302V177.916C317.244 180.151 317.684 182.365 318.548 184.427C319.412 186.489 320.683 188.356 322.286 189.918C323.87 191.516 325.758 192.784 327.839 193.645C329.921 194.506 332.154 194.944 334.407 194.932C336.689 194.987 339.987 195.378 342.534 198.005C344.52 200.056 345.445 202.15 345.445 204.597C345.445 207.045 344.535 209.073 342.58 211.055C340.797 212.975 338.332 214.126 335.711 214.262L246.901 214.428C246.193 213.579 245.487 212.728 244.782 211.877C240.001 206.115 234.161 199.177 227.354 191.17C235.837 187.855 243.141 182.101 248.34 174.641C250.197 177.418 252.358 179.981 254.783 182.282C263.434 190.555 274.049 194.748 286.334 194.748H303.758V178.446C303.785 176.149 303.328 173.872 302.417 171.762C301.506 169.652 300.161 167.756 298.47 166.197C295.197 163.099 290.845 161.39 286.332 161.429C284.906 161.469 283.486 161.221 282.159 160.701C280.831 160.18 279.622 159.397 278.606 158.399C276.506 156.409 275.569 154.336 275.569 151.675C275.569 149.014 276.492 147.011 278.558 145.087C279.59 144.099 280.81 143.325 282.145 142.812C283.48 142.299 284.905 142.057 286.335 142.1H286.54L286.757 142.088C288.01 142.026 298.823 141.922 357.161 141.922C357.477 141.922 358.237 141.936 359.118 141.952C362.04 142.007 367.482 142.107 372.339 141.989C372.785 141.978 373.215 141.965 373.634 141.952H400.575V230.419C400.563 232.652 401.002 234.865 401.865 236.926C402.729 238.987 403.999 240.854 405.601 242.415C407.195 244.027 409.098 245.301 411.196 246.164C413.295 247.027 415.546 247.459 417.816 247.436H435.061V153.344C435.061 152.093 435.061 151.091 435.057 150.045C435.057 148.912 435.053 147.726 435.053 146.106C435.058 144.655 434.688 143.228 433.979 141.96H461.046V178.1C461.046 196.523 467.71 212.606 480.844 225.904C493.875 239.098 510.07 246.328 528.979 247.397C529.908 247.469 532.853 247.592 568.564 247.592H575.997V231.287C576.024 228.99 575.567 226.713 574.657 224.603C573.746 222.493 572.401 220.597 570.709 219.038L570.704 219.037Z" fill="#454545"/>
</g>
<defs>
<clipPath id="clip0_1_50">
<rect width="576" height="362" fill="white"/>
</clipPath>
</defs>
</svg>
